<?xml version="1.0" standalone="no"?>
<!DOCTYPE svg PUBLIC "-//W3C//DTD SVG 20010904//EN"
 "http://www.w3.org/TR/2001/REC-SVG-20010904/DTD/svg10.dtd">
<svg version="1.0" xmlns="http://www.w3.org/2000/svg"
 width="360.000000pt" height="368.000000pt" viewBox="0 0 360.000000 368.000000"
 preserveAspectRatio="xMidYMid meet">

<g transform="translate(0.000000,368.000000) scale(0.100000,-0.100000)"
fill="#000000" stroke="none">
<path d="M1513 3606 c-114 -36 -209 -139 -306 -332 -42 -83 -117 -281 -117
-307 0 -6 12 1 28 16 51 49 169 87 227 73 35 -9 42 -34 50 -177 9 -175 30
-231 102 -268 38 -19 117 -14 149 11 77 59 122 162 149 338 46 294 -20 577
-149 639 -48 24 -74 25 -133 7z"/>
<path d="M550 3184 c-49 -21 -87 -60 -118 -119 -43 -85 -42 -168 9 -603 l22
-183 37 78 c39 83 92 153 117 153 7 0 67 -49 132 -108 234 -215 350 -259 403
-152 25 50 24 193 -2 296 -43 169 -165 361 -326 513 -92 88 -174 141 -214 141
-14 -1 -41 -8 -60 -16z"/>
<path d="M134 2319 c-78 -23 -113 -101 -93 -208 15 -80 122 -296 229 -461 l75
-115 5 100 c5 85 19 145 35 145 2 0 25 -11 52 -24 169 -84 494 -135 587 -91
102 49 58 172 -106 295 -145 110 -424 258 -635 339 -87 33 -100 35 -149 20z"/>
<path d="M2595 1909 c-119 -15 -226 -48 -335 -101 -88 -44 -118 -65 -186 -132
-92 -93 -144 -183 -144 -251 0 -90 93 -175 207 -191 70 -9 152 7 398 77 255
73 332 86 395 69 100 -27 160 -142 125 -240 -49 -139 -177 -322 -328 -466
-196 -189 -399 -297 -667 -356 -128 -29 -437 -31 -580 -5 -318 59 -597 200
-812 412 -80 79 -188 209 -188 228 0 4 100 7 223 7 171 0 235 4 275 15 50 15
92 52 92 82 0 45 -171 178 -351 272 -153 80 -199 92 -347 89 l-127 -3 -19 -39
c-19 -40 -19 -40 5 -110 28 -83 122 -251 205 -367 85 -119 262 -299 382 -389
185 -139 419 -244 650 -291 144 -30 445 -37 622 -14 390 49 725 198 972 433
236 225 371 474 398 736 34 335 -245 551 -705 545 -49 -1 -121 -6 -160 -10z"/>
</g>
</svg>
